<svg xmlns="http://www.w3.org/2000/svg" xmlns:d="http://www.mathworks.com/blockgraphics" xmlns:xlink="http://www.w3.org/1999/xlink" version="1.1" id="svg" width="400" height="400" d:options="Foreground:PortStyled;Background:Transparent;PreserveAspect:On;StrokeScaling:PortStyled;StrokeScalingOnResize:NonScaling;LineExtension:On;Rotate:On;Resize:FitToBlock;Frame:Off;PreAdjustStrokeWidth:Normalized;Port:Auto Majority;">
	<g id="part" title="part_0" ie-ports="left:foundation-electrical-electrical*foundation-electrical-electrical,top:,right:foundation-electrical-electrical*foundation-electrical-electrical,bottom:">
		<g id="IdealTransformer">
			<g id="Left">
				<path id="path_75" class="path" d=" M 93.66,13.2 L 174.21,13.2 L 174.21,26.04 Q 149.04,29.68 149.04,44.24 Q 149.04,58.79 174.21,62.43 Q 149.04,66.07 149.04,80.62 Q 149.04,95.18 174.21,98.81 Q 149.04,102.45 149.04,117.01 Q 149.04,131.56 174.21,135.2 Q 149.04,138.84 149.04,153.39 Q 149.04,167.95 174.21,171.59 L 174.21,184.43 L 93.66,184.43"/>
				<ellipse id="ellipse_76" class="ellipse" style="fill: #000000;stroke: #000000;" cx="136.44" cy="23.9" rx="2.52" ry="2.14"/>
			</g>
			<g id="Right">
				<path id="path_26" class="path" d=" M 295.03,13.2 L 214.48,13.2 L 214.48,26.04 Q 239.65,29.68 239.65,44.24 Q 239.65,58.79 214.48,62.43 Q 239.65,66.07 239.65,80.62 Q 239.65,95.18 214.48,98.81 Q 239.65,102.45 239.65,117.01 Q 239.65,131.56 214.48,135.2 Q 239.65,138.84 239.65,153.39 Q 239.65,167.95 214.48,171.59 L 214.48,184.43 L 295.03,184.43"/>
				<ellipse id="ellipse_56" class="ellipse" style="fill: #000000;stroke: #000000;" cx="251.58" cy="22.27" rx="2.52" ry="2.14"/>
			</g>
		</g>
		<g id="IdealTransformer_20">
			<g id="Left_16">
				<path id="path" class="path" d=" M 93.66,203.88 L 174.2,203.88 L 174.2,217.34 Q 149.04,221.15 149.04,236.4 Q 149.04,251.66 174.2,255.47 Q 149.04,259.28 149.04,274.55 Q 149.04,289.8 174.2,293.6 Q 149.04,297.41 149.04,312.67 Q 149.04,327.93 174.2,331.74 Q 149.04,335.56 149.04,350.8 Q 149.04,366.05 174.2,369.87 L 174.2,383.33 L 93.66,383.33"/>
				<ellipse id="ellipse" class="ellipse" style="fill: #000000;stroke: #000000;" cx="136.44" cy="215.1" rx="2.52" ry="2.24"/>
			</g>
			<g id="Right_19">
				<path id="path_17" class="path" d=" M 295.03,203.88 L 214.48,203.88 L 214.48,217.34 Q 239.65,221.15 239.65,236.4 Q 239.65,251.66 214.48,255.47 Q 239.65,259.28 239.65,274.55 Q 239.65,289.8 214.48,293.6 Q 239.65,297.41 239.65,312.67 Q 239.65,327.93 214.48,331.74 Q 239.65,335.56 239.65,350.8 Q 239.65,366.05 214.48,369.87 L 214.48,383.33 L 295.03,383.33"/>
				<ellipse id="ellipse_18" class="ellipse" style="fill: #000000;stroke: #000000;" cx="251.57" cy="213.39" rx="2.52" ry="2.24"/>
			</g>
		</g>
	</g>
</svg>
